<?xml version="1.0" encoding="utf-8"?>
<svg viewBox="11.58 8.11 125.68 132.036" width="125.68" height="132.036" xmlns="http://www.w3.org/2000/svg">
  <path d="M 27.58 8.11 C 28.24 10.09 28.82 12.25 29.89 14.05 C 31.76 14.86 33.84 15.25 35.81 15.74 C 33.81 16.35 31.67 16.86 29.81 17.84 C 28.80 19.67 28.25 21.81 27.62 23.81 C 27.12 21.88 26.74 19.82 25.90 18.01 C 24.18 16.96 22.12 16.38 20.22 15.70 C 22.09 15.18 24.14 14.80 25.85 13.88 C 26.67 12.07 27.08 10.03 27.58 8.11 Z" style="fill: rgb(236, 125, 49);"/>
  <path d="M 53.53 24.93 C 54.25 27.03 54.94 29.14 55.63 31.25 C 57.52 31.76 59.42 32.21 61.30 32.75 C 59.32 33.32 57.35 33.92 55.36 34.46 C 54.86 36.59 54.36 38.72 53.87 40.84 C 53.27 38.91 52.79 36.86 51.91 35.03 C 50.13 33.87 48.03 33.15 46.08 32.33 C 48.14 32.01 50.21 31.70 52.26 31.36 C 52.68 29.21 53.10 27.07 53.53 24.93 Z" style="fill: rgb(236, 125, 49);"/>
  <path d="M 86.05 30.85 C 88.39 32.82 90.60 35.07 92.74 37.26 C 101.12 45.88 109.67 54.33 118.09 62.92 C 121.85 66.43 126.12 70.40 127.94 75.33 C 126.13 75.65 124.31 75.96 122.49 76.25 C 122.66 86.11 122.44 95.97 122.63 105.83 C 121.01 106.30 119.41 106.79 117.80 107.28 C 117.58 97.49 117.72 87.71 117.78 77.92 C 117.65 75.88 117.92 73.04 116.57 71.36 C 114.61 68.76 112.05 66.56 109.75 64.25 C 101.81 56.38 94.06 48.32 86.05 40.52 C 77.35 49.00 68.97 57.79 60.26 66.25 C 57.98 68.73 54.37 71.33 54.50 75.01 C 54.25 82.68 54.60 90.38 54.45 98.06 C 52.86 98.07 51.27 98.08 49.68 98.09 C 49.65 90.80 49.54 83.56 49.81 76.32 C 47.92 76.01 46.03 75.70 44.14 75.37 C 45.79 71.44 48.38 68.35 51.45 65.45 C 63.23 54.18 74.14 41.97 86.05 30.85 Z" style="fill: rgb(49, 128, 236);"/>
  <path d="M 27.62 34.89 C 28.82 39.39 29.69 43.94 30.61 48.51 C 35.16 49.54 39.75 50.27 44.25 51.51 C 39.72 52.60 35.14 53.41 30.59 54.43 C 29.67 59.01 28.82 63.58 27.62 68.11 C 26.63 63.52 25.80 58.91 24.80 54.32 C 20.38 53.42 15.96 52.62 11.58 51.52 C 15.93 50.25 20.33 49.56 24.78 48.61 C 25.79 44.05 26.65 39.46 27.62 34.89 Z" style="fill: rgb(236, 125, 49);"/>
  <path d="M 104.48 42.09 C 109.03 41.97 113.58 41.96 118.13 41.99 C 118.13 46.65 118.13 51.32 118.06 55.99 C 113.41 51.49 108.82 46.89 104.48 42.09 Z" style="fill: rgb(49, 128, 236);"/>
  <path d="M 65.34 80.15 C 70.46 79.41 75.79 79.77 80.95 79.86 C 81.11 88.88 81.12 97.94 80.92 106.96 C 75.03 106.23 70.32 104.76 65.15 101.86 C 65.25 94.64 64.72 87.33 65.34 80.15 Z" style="fill: rgb(49, 128, 236);"/>
  <path d="M 91.27 80.13 C 96.43 79.41 101.78 79.78 106.98 79.83 C 107.03 85.07 107.06 90.32 107.04 95.56 C 101.72 95.65 96.39 95.59 91.07 95.52 C 91.13 90.42 90.69 85.20 91.27 80.13 Z" style="fill: rgb(49, 128, 236);"/>
  <path d="M 21.29 100.75 C 25.41 101.12 29.32 101.41 33.26 102.75 C 36.14 103.69 38.77 104.67 41.86 104.06 C 47.71 103.13 52.74 101.41 58.67 103.35 C 64.69 105.51 69.09 109.59 75.75 110.49 C 82.65 111.86 88.05 107.89 94.86 109.09 C 97.46 109.74 99.56 111.73 101.58 113.39 C 96.94 115.87 92.27 118.36 87.43 120.44 C 82.75 122.43 77.95 121.90 72.95 122.14 C 65.69 122.30 58.51 123.90 51.83 126.71 C 58.30 126.31 64.50 124.54 70.97 124.24 C 74.91 123.97 78.94 124.19 82.85 123.66 C 87.39 122.99 90.97 120.60 95.46 119.79 C 100.10 118.90 104.99 119.25 109.22 117.22 C 115.01 114.59 119.40 110.18 126.03 109.67 C 129.77 109.38 132.50 111.14 135.64 112.83 C 128.55 117.76 121.10 122.17 113.86 126.87 C 107.45 131.10 100.62 132.85 93.55 135.55 C 89.62 136.94 85.74 138.67 81.70 139.68 C 77.29 140.76 72.38 139.72 67.96 139.01 C 59.88 137.57 51.54 136.42 43.70 134.23 C 39.91 133.20 36.39 132.09 32.39 132.39 C 27.63 132.80 22.93 132.43 18.20 131.90 C 19.22 121.52 20.29 111.14 21.29 100.75 Z" style="fill: rgb(49, 128, 236);"/>
  <path d="M 133.94 116.76 C 135.06 117.33 136.16 117.93 137.26 118.54 C 130.75 122.35 124.03 125.80 117.45 129.47 C 110.70 133.28 103.52 135.24 96.00 136.86 C 101.33 134.61 106.46 133.25 111.53 130.51 C 119.18 126.28 126.18 120.81 133.94 116.76 Z" style="fill: rgb(49, 128, 236);"/>
</svg>
